<?xml version="1.0" encoding="utf-8" ?>
<svg xmlns="http://www.w3.org/2000/svg" xmlns:xlink="http://www.w3.org/1999/xlink" width="1024" height="1024">
	<path transform="scale(1.6 1.6)" fill="svg-logo" d="M288.855 130.912C293.794 131.096 297.228 144.644 300.221 148.786C304.702 154.987 312.806 154.083 318.27 157.824C327.814 164.359 305.974 170.294 303.151 172.038C296.315 176.26 295.039 190.932 288.136 191.608C282.401 187.291 281.903 176.362 271.76 170.737C265.918 167.498 242.324 162.98 264.655 156.326C283.961 150.573 281.398 132.981 288.855 130.912Z"/>
	<path transform="scale(1.6 1.6)" fill="svg-logo" d="M421.269 126.211C428.575 127.078 428.922 137.901 433.743 142.841C438.492 147.706 448.219 147.277 451.789 150.937C456.255 155.516 442.391 162.459 440.347 165.394C437.509 169.469 437.863 180.538 435.386 182.85C430.055 183.519 426.145 177.281 422.213 174.617C419.178 176.309 416.724 182.407 412.777 182C407.938 181.501 407.914 170.811 405.931 167.38C402.374 161.225 394.225 159.631 390.341 153.957C392.983 146.519 403.9 147.953 409.548 143.441C415.269 138.871 415.907 128.765 421.269 126.211Z"/>
	<path transform="scale(1.6 1.6)" fill="svg-logo" d="M370.704 76.2549C376.619 76.1915 377.49 83.3984 379.602 87.717C388.357 105.62 397.571 97.7182 403.794 104.406C410.428 111.536 390.756 115.249 387.43 117.771C380.265 123.204 378.942 134.051 373.062 139.215C366.536 141.134 362.463 125.876 357.894 119.998C352.786 113.428 337.211 112.763 338.922 104.293C348.35 97.439 354.377 104.17 362.82 88.8755C365.093 84.7594 366.101 78.3968 370.704 76.2549Z"/>
	<path transform="scale(1.6 1.6)" fill="svg-logo" d="M220.547 47.0615L224.585 47.6152C228.915 56.638 231.785 65.8475 235.552 75.0558C244.73 76.9772 268.068 75.4599 268.055 79.3535C268.045 82.7395 247.801 98.6058 243.802 102.253C246.495 110.353 255.478 135.789 252.656 137.004C243.979 140.739 227.275 115.694 219.663 119.37C216.309 121.272 183.857 147.304 186.976 134.287C189.139 125.256 194.24 111.143 197.387 101.812C192.812 97.4951 176.235 84.2202 174.189 80.6824C174.022 79.5647 174.547 78.5572 174.943 77.5354C185.406 75.8208 196.08 76.6615 206.578 75.2743C210.529 67.8904 215.925 52.6222 220.547 47.0615Z"/>
	<path transform="scale(1.6 1.6)" fill="svg-logo" d="M420.841 197.36C432.305 196.951 443.877 197.617 455.302 198.57C462.368 199.16 482.145 200.649 470.667 212.347C470.566 212.362 470.465 212.379 470.363 212.394L469.856 212.464C464.879 213.186 459.538 212.792 454.512 212.858C425.524 213.243 363.349 214.872 337.713 230.685C324.989 238.534 331.494 239.977 314.235 238.666C307.852 238.181 302.542 233.002 297.346 229.771C280.615 219.364 236.649 214.42 214.326 213.917C204.42 213.12 194.254 213.493 184.313 213.51C178.894 213.519 162.951 215.543 166.146 205.228C168.511 197.592 178.601 198.642 184.838 198.141C212.905 195.883 285.589 197.545 307.525 217.368C320.988 229.534 315.775 231.916 326.938 220.028C345.354 200.418 393.248 198.315 420.841 197.36Z"/>
	<path transform="scale(1.6 1.6)" fill="svg-logo" d="M147.385 224.429C152.917 223.867 163.663 225.713 169.554 226.387C203.646 230.287 242.708 235.909 276.124 244.112C281.565 245.447 298.005 249.446 302.526 251.697C310.265 255.551 302.62 267.266 296.533 268.317C291.356 269.211 272.086 262.924 265.933 261.438C256.446 259.146 197.74 246.838 190.333 251.218C182.858 255.636 183.754 268.313 187.652 274.666L187.884 275.036C191.099 276.053 194.683 276.252 198.024 276.697C213.092 278.704 262.992 288.868 274.188 298.974C279.501 303.77 275.142 311.797 268.392 310.808C263.018 310.02 254.114 305.802 248.64 303.854C232.328 298.05 207.354 291.285 189.606 291.398C183.192 295.85 183.675 302.455 187.873 308.596C191.26 310.243 206.272 310.89 211.359 311.713C225.771 314.045 272.658 323.399 277.424 339.29C276.104 342.931 274.509 344.666 270.621 345.79C263.978 344.512 257.75 340.761 251.426 338.354C234.287 331.831 207.767 324.155 189.506 324.991C182.685 329.614 184.072 340.511 189.867 342.237C192.664 343.07 195.975 343.035 198.885 343.285C213.511 344.543 272.139 356.386 277.425 372.687C273.213 387.104 260.039 375.638 249.935 371.401C237.231 366.073 204.025 356.321 189.536 357.388C183.014 361.653 184.168 369.042 188.095 374.921C191.697 376.15 195.315 376.041 199.052 376.394C211.616 377.581 271.886 391.342 276.919 404.787C278.71 409.575 274.496 413.42 270.397 414.764C263.583 412.699 257.488 408.535 250.95 405.712C236.696 399.556 205.194 389.851 189.016 389.994C184.507 393.651 183.315 407.25 188.354 410.203C191.319 411.94 209.626 415.859 214.714 417.288C244.071 425.53 273.682 439.268 296.688 459.588C301.359 463.557 305.603 468.104 309.534 472.796C312.731 472.939 315.788 472.647 318.944 472.182C319.953 465.714 319.636 458.978 319.637 452.446L319.627 278.623C319.628 271.757 319.417 264.807 319.742 257.95C320.215 247.982 323.82 252.405 331.141 252.25C343.721 251.984 360.845 244.484 373.548 241.505C407.902 233.447 450.988 226.337 486.708 224.575C491.311 224.348 494.879 224.514 495.231 229.828C495.772 237.996 495.319 246.463 495.318 254.658L495.331 454.995C505.703 455.656 513.375 454.072 521.894 461.526C537.099 474.832 530.659 501.345 510.305 505.271C505.654 506.169 500.713 505.738 495.993 505.733L366.053 505.761C351.576 505.772 352.229 502.583 344.877 515.87C335.219 533.326 307.71 535.893 295.427 519.932C280.089 500.003 294.365 505.704 261.43 505.721L145.387 505.737C135.253 505.752 123.079 507.159 115.049 499.644C104.559 489.825 104.503 472.707 114.451 462.547C122.23 454.602 132.169 455.348 142.445 455.191C143.132 448.68 142.695 441.763 142.693 435.199L142.682 246.969C142.678 240.484 142.388 233.915 142.743 227.443C143.979 225.375 144.926 224.784 147.385 224.429ZM442.202 293.298C423.733 294.33 404.832 298.153 387.55 304.831C380.543 307.538 362.751 314.617 358.274 319.499C352.876 325.385 358.251 336.516 366.469 332.553C390.427 320.555 403.167 314.596 431.529 311.042C437.354 310.312 443.289 310.523 449.05 309.768C456.482 302.92 454.988 292.078 442.202 293.298ZM443.365 326.392C429.234 327.106 355.066 339.458 357.134 360.487C357.506 364.263 359.27 365.945 362.724 366.966C364.015 366.715 365.318 366.506 366.567 366.088C391.763 353.325 406.663 345.661 436.939 343.744C441.199 343.474 445.586 343.48 449.751 342.479C454.042 337.718 454.795 330.993 449.532 326.646C447.75 326.372 446.179 326.281 444.377 326.353L443.365 326.392ZM445.361 359.216C427.386 360.361 371.075 371.758 358.467 386.137C354.211 390.991 357.843 401.505 365.201 399.495L365.595 399.343C371.533 397.007 377.244 392.921 383.264 390.293C406.465 380.165 423.871 377.455 448.227 375.897C454.025 371.814 455.308 365.411 450.412 359.93C448.706 359.452 447.156 358.969 445.361 359.216ZM438.509 261.122C418.836 262.648 366.338 275.061 357.052 286.488C351.923 292.799 358.084 303.787 367.636 298.276C386.653 286.688 409.299 280.861 431.242 278.11C440.623 276.933 450.286 280.831 452.822 270.314L453.537 267.221C450.587 259.152 446.007 260.641 438.509 261.122ZM441.618 391.756C414.991 394.441 396.781 399.22 372.654 410.66C364.819 414.375 353.381 418.346 359.047 429.421C360.09 430.141 361.115 430.883 362.228 431.492C364.439 431.585 366.283 431.528 368.418 430.838C387.934 419.848 406.655 412.945 429.062 409.448C435.397 408.459 443.522 408.619 449.353 407.277C456.645 401.164 454.358 390.181 441.618 391.756Z"/>
</svg>
